<svg width="116" height="36" viewBox="0 0 116 36" fill="none" xmlns="http://www.w3.org/2000/svg">
<path d="M45.98 7.84H45.92L44.9 9.88L42.18 14.82L39.52 9.9L38.46 7.7H38.4V17H35.54V3.04H38.76L42.18 9.58H42.22L45.6 3.04H48.84V17H45.98V7.84ZM60.5267 17L59.5267 13.68H54.8667L53.8667 17H50.7867L55.3867 3.04H59.1467L63.6867 17H60.5267ZM57.2267 5.8H57.1267L55.5867 11.1H58.7867L57.2267 5.8ZM68.6581 17H65.6181V3.04H72.2381C72.8781 3.04 73.4581 3.14667 73.9781 3.36C74.4981 3.57333 74.9381 3.88 75.2981 4.28C75.6715 4.66667 75.9581 5.13333 76.1581 5.68C76.3581 6.22667 76.4581 6.83333 76.4581 7.5C76.4581 8.44667 76.2448 9.27333 75.8181 9.98C75.4048 10.6867 74.7715 11.2 73.9181 11.52L76.6581 17H73.2781L70.8381 11.88H68.6581V17ZM71.8581 9.32C72.3115 9.32 72.6648 9.20667 72.9181 8.98C73.1848 8.74 73.3181 8.39333 73.3181 7.94V7.06C73.3181 6.60667 73.1848 6.26667 72.9181 6.04C72.6648 5.8 72.3115 5.68 71.8581 5.68H68.6581V9.32H71.8581ZM83.9547 10.92L82.1347 13.12V17H79.0947V3.04H82.1347V9.68H82.2547L84.2347 6.98L87.3747 3.04H90.8147L86.1147 8.78L91.2347 17H87.6547L83.9547 10.92ZM93.0205 17V3.04H102.52V5.74H96.0605V8.6H101.6V11.28H96.0605V14.3H102.52V17H93.0205ZM110.989 5.74V17H107.949V5.74H104.169V3.04H114.769V5.74H110.989ZM38.58 35H35.54V21.04H42.16C42.8 21.04 43.38 21.1467 43.9 21.36C44.42 21.5733 44.86 21.88 45.22 22.28C45.5933 22.6667 45.88 23.1333 46.08 23.68C46.28 24.2267 46.38 24.8333 46.38 25.5C46.38 26.4467 46.1667 27.2733 45.74 27.98C45.3267 28.6867 44.6933 29.2 43.84 29.52L46.58 35H43.2L40.76 29.88H38.58V35ZM41.78 27.32C42.2333 27.32 42.5867 27.2067 42.84 26.98C43.1067 26.74 43.24 26.3933 43.24 25.94V25.06C43.24 24.6067 43.1067 24.2667 42.84 24.04C42.5867 23.8 42.2333 23.68 41.78 23.68H38.58V27.32H41.78ZM48.4766 35V32.58H50.2766V23.46H48.4766V21.04H55.1166V23.46H53.3166V32.58H55.1166V35H48.4766ZM62.1694 35.24C60.9427 35.24 59.9027 35.0333 59.0494 34.62C58.196 34.1933 57.4694 33.6467 56.8694 32.98L58.8694 30.96C59.816 32.0267 60.9827 32.56 62.3694 32.56C63.116 32.56 63.6694 32.4067 64.0294 32.1C64.3894 31.7933 64.5694 31.3867 64.5694 30.88C64.5694 30.4933 64.4627 30.1733 64.2494 29.92C64.036 29.6533 63.6027 29.4733 62.9494 29.38L61.5694 29.2C60.0894 29.0133 59.0027 28.5667 58.3094 27.86C57.6294 27.1533 57.2894 26.2133 57.2894 25.04C57.2894 24.4133 57.4094 23.84 57.6494 23.32C57.8894 22.8 58.2294 22.3533 58.6694 21.98C59.1227 21.6067 59.6694 21.32 60.3094 21.12C60.9627 20.9067 61.7027 20.8 62.5294 20.8C63.5827 20.8 64.5094 20.9667 65.3094 21.3C66.1094 21.6333 66.796 22.12 67.3694 22.76L65.3494 24.8C65.016 24.4133 64.6094 24.1 64.1294 23.86C63.6627 23.6067 63.0694 23.48 62.3494 23.48C61.6694 23.48 61.1627 23.6 60.8294 23.84C60.496 24.08 60.3294 24.4133 60.3294 24.84C60.3294 25.32 60.456 25.6667 60.7094 25.88C60.976 26.0933 61.4027 26.2467 61.9894 26.34L63.3694 26.56C64.8094 26.7867 65.876 27.2333 66.5694 27.9C67.2627 28.5533 67.6094 29.4867 67.6094 30.7C67.6094 31.3667 67.4894 31.98 67.2494 32.54C67.0094 33.1 66.656 33.58 66.1894 33.98C65.736 34.38 65.1694 34.6933 64.4894 34.92C63.8094 35.1333 63.036 35.24 62.1694 35.24ZM70.1298 35V21.04H79.6298V23.74H73.1698V26.6H78.7098V29.28H73.1698V32.3H79.6298V35H70.1298Z" fill="url(#paint0_linear_53_376)"/>
<path d="M25.8462 3L19.6923 7.61538V15.6154L16 12.8462L9.84615 17.4615V25.4615L6.15385 22.6923L0 27.3077V35H2.46154V28.5385L6.15385 25.7692L9.84615 28.5385V35H12.3077V18.6923L16 15.9231L19.6923 18.6923V35H22.1538V8.84615L25.8462 6.07692L29.5385 8.84615V35H32V7.61538L25.8462 3Z" fill="url(#paint1_linear_53_376)"/>
<defs>
<linearGradient id="paint0_linear_53_376" x1="119.888" y1="3.96925e-07" x2="59.5754" y2="-22.5069" gradientUnits="userSpaceOnUse">
<stop stop-color="#9C1EBC"/>
<stop offset="1" stop-color="#FF7676"/>
</linearGradient>
<linearGradient id="paint1_linear_53_376" x1="33.5172" y1="3" x2="7.40391" y2="-1.27817" gradientUnits="userSpaceOnUse">
<stop stop-color="#9C1EBC"/>
<stop offset="1" stop-color="#FF7676"/>
</linearGradient>
</defs>
</svg>
